<?xml version="1.0" encoding="UTF-8" standalone="no"?><!DOCTYPE svg PUBLIC "-//W3C//DTD SVG 1.1//EN" "http://www.w3.org/Graphics/SVG/1.1/DTD/svg11.dtd"><svg width="100%" height="100%" viewBox="0 0 74 74" version="1.1" xmlns="http://www.w3.org/2000/svg" xmlns:xlink="http://www.w3.org/1999/xlink" xml:space="preserve" xmlns:serif="http://www.serif.com/" style="fill-rule:evenodd;clip-rule:evenodd;stroke-linejoin:round;stroke-miterlimit:1.41421;"><path d="M73.239,61.585l-11.654,11.655l-61.585,0l0,-61.981l11.259,-11.259l61.98,0l0,61.585Zm-60.417,-57.811l-9.048,9.049l0,56.643l56.247,0l9.444,-9.444l0,-56.248l-56.643,0Z" style="fill:#fff;"/><path d="M56.174,55.281l-9.732,9.733l0,-7.732l9.732,-9.732l0,7.731Z" style="fill:#fff;"/><path d="M56.174,41.911l-9.732,9.732l0,-7.731l9.732,-9.733l0,7.732Z" style="fill:#fff;"/><path d="M56.174,28.54l-9.732,9.732l0,-7.731l9.732,-9.732l0,7.731Z" style="fill:#fff;"/><path d="M56.174,15.169l-9.732,9.732l0,-7.731l9.732,-9.732l0,7.731Z" style="fill:#fff;"/><path d="M41.486,55.281l-9.733,9.733l0,-7.732l9.733,-9.732l0,7.731Z" style="fill:#fff;"/><path d="M41.486,41.911l-9.733,9.732l0,-7.731l9.733,-9.733l0,7.732Z" style="fill:#fff;"/><path d="M41.486,28.54l-9.733,9.732l0,-7.731l9.733,-9.732l0,7.731Z" style="fill:#fff;"/><path d="M41.486,15.169l-9.733,9.732l0,-7.731l9.733,-9.732l0,7.731Z" style="fill:#6ab400;"/><path d="M26.797,55.281l-9.732,9.733l0,-7.732l9.732,-9.732l0,7.731Z" style="fill:#b20031;"/><path d="M26.797,41.911l-9.732,9.732l0,-7.731l9.732,-9.733l0,7.732Z" style="fill:#fff;"/><path d="M26.797,28.54l-9.732,9.732l0,-7.731l9.732,-9.732l0,7.731Z" style="fill:#fff;"/><path d="M26.797,15.169l-9.732,9.732l0,-7.731l9.732,-9.732l0,7.731Z" style="fill:#fff;"/></svg>